<svg xmlns="http://www.w3.org/2000/svg" width="73" height="63" viewBox="0 0 73 63"><g><g><g><path fill="#fefefe" d="M36.578 0c2.55 0 3.352 1.808 4.022 3.617.284.766 6.91 18.721 7.109 19.26.054.149.019.398-.217.485-.235.088-3.677 1.413-3.867 1.485a.377.377 0 0 1-.475-.221c-.071-.186-1.497-4.1-1.66-4.54h-9.815l-1.67 4.54a.37.37 0 0 1-.474.22c-.201-.079-3.66-1.406-3.868-1.484a.38.38 0 0 1-.215-.486c.243-.673 6.768-18.338 7.101-19.26C33.196 1.837 34.027 0 36.578 0zm11.654 32.126c.204 0 .369.169.369.377v4.186a.371.371 0 0 1-.369.376H24.924a.372.372 0 0 1-.37-.376v-4.186c0-.208.166-.377.37-.377zM36.557 5.863l-3.32 9.873h6.692L36.6 5.863zm12.544 50.789a5.805 5.805 0 0 0-1.13.083v2.685c.47.128.768.127 1.13.127.912 0 1.41-.583 1.41-1.47 0-.959-.483-1.39-1.41-1.425zm-.102 4.33a8.441 8.441 0 0 1-2.9-.511l.002-8.741c.623-.167 1.933-.375 2.778-.375.854 0 1.959.103 2.714.271l-.046 1.37a17.624 17.624 0 0 0-2.031-.112c-.633 0-1.213.04-1.55.088l.005 2.365c.544-.127.893-.175 1.393-.175 2.046 0 3.022 1.132 3.022 2.774 0 1.88-1.161 3.047-3.387 3.047zm-19.252-5.51c-.342 0-.57-.003-.993.198v3.663c.384.124.565.142.908.142.813 0 1.304-.787 1.304-2.009 0-1.333-.405-1.994-1.219-1.994zm-3.653 4.003c.342 0 .521-.018.904-.142V55.67c-.422-.201-.647-.198-.988-.198-.809 0-1.214.704-1.214 2.035 0 1.223.377 1.968 1.298 1.968zM26.998 63v-2.385c-.223.129-.667.322-1.421.322-1.603 0-2.592-1.183-2.592-3.43 0-2.415 1.092-3.49 2.89-3.49.456 0 .752.046 1.123.218v-2.847h1.756v2.847c.369-.172.667-.218 1.123-.218 1.797 0 2.889 1.031 2.889 3.45 0 2.245-1.1 3.47-2.592 3.47-.752 0-1.196-.193-1.42-.322V63zm-13.253-2.176V55.61c-.465-.068-.544-.084-.92-.084-.371 0-.464.016-.932.084v2.408c0 1.935-.532 2.547-1.948 2.94l-.482-1.021c.358-.232.488-.536.583-.789.099-.286.114-.554.114-1.444v-3.276c.97-.284 1.695-.406 2.666-.406.97 0 1.715.122 2.683.406v6.396zm23.326-2.474v-.476a1.88 1.88 0 0 0-.521-.066c-.873 0-1.326.226-1.326.891 0 .64.359.887.99.887.304 0 .56-.03.948-.165-.063-.219-.09-.555-.09-1.071zm1.177 2.608c-.144-.046-.497-.304-.669-.56-.294.192-.39.247-.618.344a3.658 3.658 0 0 1-1.298.232c-1.216 0-2.208-.72-2.208-2.04 0-1.405.93-2.256 2.696-2.256.339 0 .632.05.892.12v-.324c0-.864-.136-1.033-1.305-1.033-.373 0-.892.059-1.387.127l-.262-1.282a9.423 9.423 0 0 1 2.273-.264c1.103 0 1.697.212 2.056.71.26.353.374.709.374 1.675v1.788c0 .88.12 1.294.585 1.992zm18.387-2.608v-.476a1.837 1.837 0 0 0-.518-.066c-.871 0-1.326.226-1.326.891 0 .64.357.887.99.887.305 0 .558-.03.949-.165-.065-.219-.095-.555-.095-1.071zm1.205 2.608c-.143-.046-.493-.304-.669-.56-.292.192-.39.247-.615.344-.374.148-.84.232-1.294.232-1.212 0-2.205-.72-2.205-2.04 0-1.405.93-2.256 2.691-2.256.338 0 .629.05.887.12v-.324c0-.864-.134-1.033-1.297-1.033-.375 0-.896.059-1.385.127l-.263-1.282a9.352 9.352 0 0 1 2.265-.264c1.104 0 1.697.212 2.056.71.259.353.372.709.372 1.675v1.788c0 .88.119 1.294.588 1.992zm-38.438-3.447c-.272 0-.312.014-.771.103v1.914c.37.103.486.103.771.103.848 0 1.082-.45 1.082-1.105 0-.626-.273-1.015-1.082-1.015zm-.77-3.383V56.3c.462-.11.708-.166 1.13-.166 1.658 0 2.545.885 2.545 2.311 0 1.579-1.003 2.536-2.875 2.536a6.837 6.837 0 0 1-2.57-.505l.007-6.348zm45.018 6.686V58.11h-1.997v2.704h-1.76v-6.628h1.76v2.508h1.997v-2.508h1.762v6.628zm7.078.01s-.597-1.438-.91-2.065c-.268-.528-.355-.65-.857-.65l-.24.005v2.71h-1.768v-6.638h1.768v2.509h.298c.452 0 .534-.154.704-.504.169-.344.298-.612.465-.95.155-.312.281-.58.464-.76.23-.238.478-.369.956-.398.29-.016.57-.015.82.018l-.087 1.207s-.236-.06-.412.097c-.175.154-.263.292-.568.941-.313.662-.6.881-.962.95v.03c.54.126.785.486 1.052 1.008.235.46 1.193 2.49 1.193 2.49zM6.4 59.004H3.035l-.579 1.82H.51l3.253-9.277c.366-.113.53-.176.996-.176.425 0 .829.068 1.15.176l3.068 9.277H6.946s-.245-.813-.546-1.82zm-.47-1.557l-.616-2.16a73.164 73.164 0 0 1-.516-1.937h-.056s-.34 1.19-.564 1.947c-.087.293-.649 2.15-.649 2.15zm37.637.056c0 .62-.505 1.114-1.124 1.114a1.119 1.119 0 0 1-1.127-1.114c0-.612.505-1.113 1.127-1.113.619 0 1.124.5 1.124 1.113z"/></g></g></g></svg>