<svg xmlns="http://www.w3.org/2000/svg" width="120" height="27" viewBox="0 0 120 27"><g><g><g><path fill="#fff" d="M26.202 14.991c3.779-5.39 5.277-10.376 3.915-13.01C29.445.684 28.107 0 26.244 0 22.087 0 15.84 3.615 10.33 9.208l-.103.104h1.12c4.69-4.561 10.09-7.525 13.544-7.525 1.51 0 2.605.588 3.162 1.7 1.181 2.36-.168 6.737-3.436 11.157-3.152 4.263-6.733 7.77-10.359 10.141l-.17.114h2.621l.018-.012c3.558-2.74 6.923-6.255 9.476-9.896m-2.65-.38c2.964-4.23 4.097-7.991 3.026-10.06-.523-1.008-1.561-1.539-3.006-1.539-2.96 0-7.315 2.376-11.365 6.197l-.112.103h1.223c3.222-2.82 6.497-4.521 9.053-4.521 1.077 0 1.86.424 2.26 1.225.88 1.761-.154 5.122-2.573 8.363-4.683 6.276-10.45 9.661-13.5 9.661-.98 0-1.703-.32-2.147-.951-.652-.933-.636-2.491.044-4.39l.092-.259L0 24.9l12.076-.002.012-.006c4.034-2.01 8.426-5.95 11.463-10.281"/></g><g><path fill="#fff" d="M18.744 14.925L15.64 18.05h-4.977l.865-.89H15.3l2.829-2.852zm-5.93-1.631l-4.72 4.756H6.87l4.72-4.756zm1.928 2.52l2.444-2.455.613.615-2.696 2.71H12.01l.866-.87zm-1.331-2.454l.612.616-4.041 4.074H8.757zm1.274.616l-1.159-1.168H6.929l.866-.871h6.09l2.027 2.04-1.438 1.44-.611-.619.779-.778.044-.044zm-.598-2.505l-.017-.02H8.28l.864-.871h5.283l2.428 2.447-.612.616-2.157-2.172z"/></g><g><path fill="#fff" d="M99.473 16.554h5.218v6.827h-1.644v-5.474h-2.093v2.638c0 .772 0 1.722-.524 2.265-.431.446-1.06.573-1.593.573h-.56v-1.37h.225c.38 0 .693-.1.814-.35.157-.321.157-.933.157-1.173zm12.617 3.292c.007.451-.035.902-.124 1.345-.07.34-.195.668-.369.971a2.62 2.62 0 0 1-1.13.973 3.72 3.72 0 0 1-1.565.325c-.543 0-1.026-.087-1.45-.263a2.305 2.305 0 0 1-1.03-.814c-.396-.56-.583-1.37-.564-2.427 0-.368.027-.716.079-1.049.053-.33.147-.624.283-.88a2.607 2.607 0 0 1 1.123-1.166c.497-.272 1.075-.408 1.732-.408.541 0 1.028.1 1.456.296.43.197.777.482 1.036.849.197.296.334.626.406.972.087.382.126.807.117 1.276zm-1.845-1.201a1.176 1.176 0 0 0-.49-.592 1.435 1.435 0 0 0-.74-.192 1.424 1.424 0 0 0-.76.205 1.36 1.36 0 0 0-.512.566 2.227 2.227 0 0 0-.182.608c-.034.22-.057.465-.066.73 0 .268.014.51.044.732.028.22.088.413.174.578.109.24.27.425.484.56.213.132.462.199.746.199.31 0 .588-.08.831-.242.245-.16.419-.406.527-.738.055-.155.089-.317.103-.481.02-.193.029-.438.029-.732 0-.533-.063-.933-.188-1.201zM38.53 13.78v1.517h-4.273v8.083H32.5v-9.599h6.03zm5.994 6.209c0 .396-.036.797-.108 1.206a3.23 3.23 0 0 1-.412 1.117 2.44 2.44 0 0 1-.842.827c-.356.218-.826.326-1.405.326-.3 0-.594-.054-.884-.16a1.608 1.608 0 0 1-.709-.49h-.03v3.325H38.49v-9.587h1.644v.607l.043.013c.242-.257.516-.434.826-.536.299-.1.612-.151.928-.152.56 0 1.012.107 1.354.323.344.218.607.496.79.837.185.34.305.714.363 1.13.058.414.086.818.086 1.214zm-1.704-.006c0-.22-.01-.45-.03-.687a2.056 2.056 0 0 0-.158-.66 1.184 1.184 0 0 0-.399-.497c-.177-.127-.426-.193-.744-.193-.309 0-.553.066-.73.2a1.282 1.282 0 0 0-.407.502 2.28 2.28 0 0 0-.18.661c-.03.238-.043.464-.043.675 0 .21.01.434.034.673.027.24.084.457.175.654.092.196.226.36.406.488.178.13.416.193.716.193.299 0 .54-.062.723-.185.183-.124.32-.282.412-.475a2.06 2.06 0 0 0 .182-.647c.028-.24.042-.473.042-.701zm6.093-.891l.913-2.538h1.726l-3.16 8.206c-.206.525-.495.885-.873 1.084a2.607 2.607 0 0 1-1.219.296h-.61v-1.308h.45a.733.733 0 0 0 .536-.216c.147-.144.26-.316.335-.505l.363-1.075-2.642-6.482h1.771l.929 2.511.712 2.151h.057zm3.39-2.538h5.986v6.827h-1.637v-5.489H53.94v5.489h-1.637zm7.476 0h6.004v6.827h-1.644v-5.489h-2.718v5.489H59.78zm13.1 2.193v4.634h-1.64v-.606l-.027-.015c-.196.24-.463.415-.807.525-.344.11-.704.166-1.066.165-.766 0-1.37-.176-1.815-.531-.445-.353-.668-.864-.668-1.523 0-.277.053-.54.159-.786.106-.249.265-.472.467-.656.2-.189.455-.338.76-.448a3.057 3.057 0 0 1 1.054-.166h1.944v-.496c0-.127-.022-.253-.066-.372a.723.723 0 0 0-.225-.312 1.259 1.259 0 0 0-.435-.213 2.486 2.486 0 0 0-.696-.083c-.399 0-.731.048-1 .145-.274.097-.51.236-.714.421l-.87-1.048a2.87 2.87 0 0 1 1.22-.696c.47-.135.96-.203 1.45-.201.407 0 .788.034 1.145.104.359.068.674.191.946.365.269.175.486.407.645.696.16.29.24.656.24 1.097zm-3.308 1.78c-.419 0-.716.073-.896.22a.674.674 0 0 0-.269.538c0 .101.022.203.066.303a.67.67 0 0 0 .218.269c.102.078.232.143.393.193.159.051.36.075.603.075.184 0 .363-.016.539-.048.173-.03.331-.084.47-.158.139-.07.26-.17.357-.29a.824.824 0 0 0 .175-.454c.011-.069.016-.138.015-.208v-.44zm13.603-5.74c.284.343.491.74.608 1.166.127.44.19.9.19 1.376v2.457c0 .515-.078.996-.231 1.442-.156.446-.39.832-.705 1.158-.33.337-.731.601-1.175.773-.47.188-1.02.282-1.649.282-.88 0-1.624-.196-2.234-.593a3.183 3.183 0 0 1-1.29-1.64l1.653-.663c.122.376.354.71.668.96.309.243.71.364 1.203.364.358 0 .665-.058.924-.172a1.69 1.69 0 0 0 .623-.463c.16-.194.278-.416.347-.655.073-.243.11-.497.11-.766v-.648h-3.12v-1.461h3.12v-.442c0-.249-.028-.49-.086-.723a1.715 1.715 0 0 0-.306-.635c-.146-.189-.34-.34-.588-.455-.247-.115-.554-.173-.92-.173-.466 0-.872.117-1.22.352-.35.235-.586.541-.711.916l-1.654-.62a3.2 3.2 0 0 1 .528-.91c.23-.278.505-.517.814-.71a3.9 3.9 0 0 1 1.045-.455 4.621 4.621 0 0 1 1.24-.159c.667 0 1.232.099 1.698.296.464.199.837.465 1.118.8zm1.611 1.767h6.01v1.338h-2.193v5.489h-1.64v-5.489h-2.177zm12.4 2.193v4.634h-1.638v-.606l-.029-.015c-.194.24-.463.415-.807.525-.34.11-.7.165-1.067.165-.764 0-1.37-.176-1.813-.531-.447-.353-.669-.864-.669-1.523a1.926 1.926 0 0 1 .623-1.442c.205-.189.459-.338.765-.448a3.049 3.049 0 0 1 1.05-.166h1.947v-.496c0-.127-.022-.253-.065-.372a.73.73 0 0 0-.226-.312 1.273 1.273 0 0 0-.435-.213 2.486 2.486 0 0 0-.696-.083c-.398 0-.732.048-1.003.145-.273.097-.509.236-.71.421l-.874-1.048c.35-.332.756-.564 1.221-.696.47-.135.96-.203 1.45-.201a6 6 0 0 1 1.148.104c.358.068.673.191.943.365.27.175.487.407.647.696.16.29.239.656.239 1.097zm-3.307 1.78c-.42 0-.716.073-.895.22a.672.672 0 0 0-.27.538c0 .101.022.203.066.303.042.101.114.191.217.269.102.078.234.143.393.193.16.051.36.075.602.075.186 0 .365-.016.54-.048.165-.028.325-.08.472-.158a1.13 1.13 0 0 0 .356-.29.85.85 0 0 0 .175-.454c.01-.056.016-.125.016-.208v-.44z"/></g></g></g></svg>