<svg xmlns="http://www.w3.org/2000/svg" width="119" height="24" viewBox="0 0 119 24"><g><g><g><path fill="#fff" d="M31.318 14.74c.48.543 1.055.938 1.775 1.235.72.296 1.535.444 2.543.444.48 0 .96-.049 1.344-.098.432-.05.767-.149 1.103-.297.336-.099.624-.247.912-.346.24-.148.48-.247.672-.346l-.336-.74-.576.296c-.192.098-.384.148-.624.247-.24.05-.48.148-.767.148-.288.05-.624.05-1.008.05-.72 0-1.344-.149-1.776-.445-.48-.297-.815-.692-1.103-1.137a6.047 6.047 0 0 1-.528-1.73 15.476 15.476 0 0 1-.144-2.174c0-.593.048-1.235.096-1.877a4.536 4.536 0 0 1 .432-1.68c.24-.495.528-.89.96-1.236.431-.296 1.007-.494 1.727-.494a2.89 2.89 0 0 1 1.727.544c.48.346.768.938.912 1.68h.768V4.362c-.24-.098-.48-.197-.768-.296a4.97 4.97 0 0 0-.912-.198c-.335-.05-.623-.05-.96-.099-.287 0-.575-.049-.815-.049-1.056 0-1.92.148-2.687.445a4.938 4.938 0 0 0-1.823 1.285c-.48.543-.816 1.235-1.056 2.025-.24.791-.336 1.73-.336 2.718 0 .94.096 1.829.336 2.57.144.84.48 1.482.912 1.976z"/></g><g><path fill="#fff" d="M76.457 14.808a.446.446 0 0 1-.145-.342c0-.147-.048-.342-.048-.586V8.8h1.015c.917 0 1.594.244 1.98.732.387.489.58 1.27.58 2.345 0 .733-.048 1.27-.193 1.71-.145.44-.29.732-.532.976a2.877 2.877 0 0 1-.724.44c-.29.049-.58.098-.87.098-.29-.05-.531-.05-.676-.098-.145-.049-.29-.098-.387-.195zm2.945.879a4.068 4.068 0 0 0 1.592-.489c.482-.293.868-.683 1.109-1.22.29-.538.434-1.27.434-2.199 0-.684-.097-1.22-.29-1.71-.192-.488-.482-.83-.916-1.172-.434-.293-.964-.488-1.64-.634-.675-.147-1.494-.196-2.459-.196h-1.013V5.185c0-.293.049-.488.193-.586.145-.097.386-.097.772-.097h1.447c.434 0 .82 0 1.109.048.29.05.53.098.675.245.193.146.337.341.434.586.096.244.241.586.337 1.025h.627V3.72H72.94v.39c.048 0 .096.05.241.05.145.048.241.097.29.146.048.049.096.147.144.293 0 .147.048.293.048.489v9.329c0 .195 0 .39-.048.488 0 .147-.048.245-.145.293-.048.05-.144.147-.289.147-.145.049-.193.049-.241.049v.39h4.485c.723 0 1.35 0 1.977-.097z"/></g><g><path fill="#fff" d="M65.94 4.798c0-.098.048-.147.096-.195.047-.05.143-.098.286-.098.144 0 .287-.05.526-.05.287 0 .574.05.86.099.287.097.478.244.717.44.191.196.335.49.478.832.096.343.144.784.144 1.273 0 1.029-.144 1.812-.43 2.35-.287.539-.813.833-1.53.833h-1.195v-5.19c0-.098 0-.196.048-.294zm.38 10.594c-.142-.049-.237-.098-.285-.147-.048-.049-.095-.147-.143-.294 0-.147-.048-.294-.048-.49v-3.385h1.192c.619 0 1.19-.049 1.762-.147a4.43 4.43 0 0 0 1.477-.54c.43-.293.763-.637 1-1.176.24-.49.382-1.177.382-2.011 0-.785-.143-1.422-.334-1.864-.238-.441-.571-.833-.952-1.079-.382-.245-.858-.392-1.382-.44a16.937 16.937 0 0 0-1.62-.099H62.7v.392c.048 0 .095.05.238.05.143.048.238.097.286.147.048.049.095.147.143.294 0 .147.048.294.048.49v9.318c0 .196 0 .393-.048.49 0 .148-.048.246-.143.295-.048.05-.143.147-.286.147-.143.05-.19.05-.238.05v.392h3.86v-.344c-.049 0-.096-.049-.24-.049z"/></g><g><path fill="#fff" d="M60.777 13.038h-.805c-.1.49-.201.834-.302 1.128-.1.294-.201.49-.403.638-.15.147-.402.245-.704.245-.302.049-.705.049-1.258.049-.503 0-.906 0-1.157-.05-.302-.048-.504-.097-.655-.195-.15-.098-.251-.246-.251-.393-.05-.196-.05-.392-.05-.686V9.948h2.163c.201 0 .403.05.604.05.201 0 .403.049.604.098.201.049.352.098.503.196v-1.57a1.53 1.53 0 0 1-.503.197c-.201.049-.403.098-.604.098-.201.049-.403.049-.604.049h-2.163V5.044c0-.245.05-.441.1-.54.1-.097.252-.097.503-.097h1.359c.453 0 .855 0 1.157.049.302.049.554.098.705.245.201.147.352.343.453.588.1.246.251.589.352 1.03h.654V3.72H51.82v.392c.05 0 .1.05.252.05.15.048.251.097.302.147.05.049.1.147.15.294 0 .147.05.294.05.49v9.318c0 .196 0 .393-.05.49 0 .148-.05.246-.15.295-.05.049-.151.147-.302.147-.151.05-.202.05-.252.05v.392h8.957v-2.747z"/></g><g><path fill="#fff" d="M44.42 14.808a.446.446 0 0 1-.146-.342c0-.147-.048-.342-.048-.586V8.8h1.014c.918 0 1.595.244 1.981.732.387.489.58 1.27.58 2.345 0 .733-.049 1.27-.193 1.71-.145.44-.29.732-.532.976a2.877 2.877 0 0 1-.724.44c-.29.049-.58.098-.87.098-.29-.05-.483-.05-.676-.098-.145-.049-.29-.098-.387-.195zm2.944.879a4.068 4.068 0 0 0 1.591-.489 3.12 3.12 0 0 0 1.158-1.22c.29-.538.434-1.27.434-2.199 0-.684-.097-1.22-.29-1.71-.192-.488-.482-.83-.916-1.172-.434-.293-.964-.488-1.64-.634-.675-.147-1.494-.196-2.459-.196h-1.013V5.185c0-.293.049-.488.193-.586.145-.097.386-.097.772-.097h1.447c.434 0 .82 0 1.109.048.29.05.53.098.675.245.193.146.337.341.434.586.096.244.241.586.337 1.025h.627V3.72H40.95v.39c.048 0 .096.05.241.05.145.048.241.097.29.146.048.049.096.147.144.293 0 .147.048.293.048.489v9.28c0 .195 0 .342-.048.488 0 .147-.048.245-.145.294-.048.048-.144.146-.289.146-.145.049-.193.049-.241.049v.44h4.485c.723 0 1.302 0 1.929-.098z"/></g><g><path fill="#fff" d="M29.43 18.96H119v1.27H29.43z"/></g><g><path fill="#fff" d="M112.03 11.144c.238.342.427.635.664.928.19.293.427.586.616.88.19.293.38.586.617.879.236.342.426.635.616.977.19.293.331.635.474.928l3.98.049c-.426-.44-.805-.88-1.232-1.32-.379-.439-.71-.83-.948-1.074-.379-.44-.71-.83-.995-1.172-.332-.39-.616-.733-.9-1.075a15.86 15.86 0 0 1-.806-1.074 24.482 24.482 0 0 1-.758-1.173l.19-.244c.284-.39.615-.781.995-1.27.379-.488.758-.977 1.184-1.416.427-.489.806-.928 1.233-1.319.426-.39.758-.684 1.09-.928h-2.75a7.399 7.399 0 0 1-.426.88c-.19.341-.379.732-.663 1.123-.237.39-.521.83-.758 1.27-.285.44-.522.83-.806 1.22-.284.391-.521.782-.758 1.075-.237.342-.427.586-.569.83l.71 1.026z"/></g><g><path fill="#fff" d="M111.319 15.441c-.048 0-.095-.049-.237-.049-.142-.049-.237-.098-.285-.147-.047-.049-.094-.147-.142-.294 0-.147-.047-.294-.047-.49V5.141c0-.196 0-.392.047-.49 0-.147.048-.245.142-.294.048-.05.143-.099.285-.148.142-.049.19-.049.237-.049V3.72H107.48v.392c.047 0 .095.05.237.05.142.048.237.097.284.147.048.049.095.147.142.294 0 .147.048.294.048.49v9.318c0 .196 0 .393-.048.49 0 .148-.047.246-.142.295-.047.05-.142.147-.284.147-.142.05-.19.05-.237.05v.392h3.839z"/></g><g><path fill="#fff" d="M87.778 5.674l1.603 4.894h-3.304zm-2.77 8.596c.146-.683.437-1.66.826-2.881h3.839l.534 1.563c.243.683.438 1.27.535 1.758.146.488.243.83.243 1.075h3.061c-.146-.245-.291-.587-.486-.977-.194-.391-.437-.977-.68-1.71l-2.77-7.913c-.146-.342-.194-.635-.243-.879-.048-.244-.048-.44-.097-.586h-3.45v.39c.049 0 .097.05.243.05.146.048.243.097.292.146.048.049.097.147.145.293v.244c0 .293-.048.587-.145.782l-1.944 4.787c-.34.879-.68 1.66-.923 2.246-.243.587-.486 1.124-.632 1.515-.194.39-.34.732-.486.977-.146.244-.243.44-.34.635h2.187c.048-.342.145-.83.291-1.515z"/></g><g><path fill="#fff" d="M99.228 15.394h-.096c-.048 0-.096-.05-.24-.05-.145-.048-.241-.097-.29-.146-.048-.048-.096-.146-.144-.293 0-.146-.048-.293-.048-.488v-4.64h4.62v4.591c0 .195 0 .39-.048.488 0 .147-.048.245-.144.294-.049.048-.145.146-.29.146-.144.049-.192.049-.24.049v.39h3.898v-.39c-.048 0-.096-.049-.24-.049-.145-.049-.24-.098-.289-.146-.048-.05-.096-.147-.144-.294 0-.146-.049-.293-.049-.488V5.039c0-.196 0-.391.049-.489 0-.146.048-.244.144-.293.048-.049.144-.097.289-.146.144-.05.192-.05.24-.05V3.72h-3.802v.39c.049 0 .097.05.241.05.144.048.24.097.289.146.048.049.096.147.144.293 0 .147.048.293.048.489v3.858h-4.62V5.088c0-.196 0-.391.048-.489 0-.146.049-.244.145-.293.048-.049.144-.098.289-.146.144-.05.192-.05.24-.05v-.39H95.33v.39c.048 0 .096.05.24.05.145.048.241.097.29.146.047.049.096.147.144.293 0 .147.048.293.048.489V14.417c0 .195 0 .342-.048.488 0 .147-.048.245-.145.293-.048.05-.144.147-.288.147-.145.049-.193.049-.241.049v.39h3.898v-.39z"/></g><g><path fill="#fff" d="M21.753 4.778L21.02 3.72 7.482 11.733.933 7.853a6.317 6.317 0 0 0-.293 1.31l6.891 4.082z"/></g><g><path fill="#fff" d="M7.211 14.931L.05 10.82c-.05.247-.05.545-.05.792 0 6.491 5.272 11.793 11.836 11.793 6.515 0 11.836-5.252 11.836-11.793 0-1.932-.448-3.765-1.293-5.351z"/></g><g><path fill="#fff" d="M19.834 2.7c-.35-.346-.7-.593-1.05-.89L6.938 8.582 1.24 5.369c-.2.346-.4.741-.6 1.137l6.248 3.559z"/></g><g><path fill="#fff" d="M17.915 1.254c-.442-.255-.883-.51-1.374-.714L7.466 5.995 3.394 3.6c-.294.306-.54.663-.834 1.02l4.857 2.906z"/></g></g></g></svg>