<svg xmlns="http://www.w3.org/2000/svg" width="87" height="60" viewBox="0 0 87 60"><defs><clipPath id="itpoa"><path fill="#fff" d="M25 37.314V7.686h62v29.628zm56.32-17.21l-1.86-.9-8.26 14.6 1.78.88zm-8.78 4.37c-.307.3-.673.45-1.1.45-.427 0-.793-.15-1.1-.45-.307-.3-.46-.663-.46-1.09 0-.427.153-.793.46-1.1.307-.307.673-.46 1.1-.46.427 0 .793.153 1.1.46.307.307.46.673.46 1.1 0 .427-.153.79-.46 1.09zm2.4-2.58c-.2-.46-.47-.86-.81-1.2a3.684 3.684 0 0 0-1.21-.8 3.829 3.829 0 0 0-1.48-.29c-.52 0-1.013.097-1.48.29-.467.193-.87.46-1.21.8-.34.34-.61.74-.81 1.2-.2.46-.3.957-.3 1.49 0 .52.1 1.01.3 1.47.2.46.47.86.81 1.2.34.34.743.61 1.21.81.467.2.96.3 1.48.3s1.013-.1 1.48-.3c.467-.2.87-.47 1.21-.81.34-.34.61-.74.81-1.2.2-.46.3-.95.3-1.47 0-.533-.1-1.03-.3-1.49zm7.53 9.17c-.087.187-.2.35-.34.49s-.303.25-.49.33c-.187.08-.387.12-.6.12-.427 0-.793-.15-1.1-.45-.307-.3-.46-.663-.46-1.09 0-.427.153-.793.46-1.1.307-.307.673-.46 1.1-.46.213 0 .413.04.6.12.187.08.35.19.49.33s.253.307.34.5a1.475 1.475 0 0 1 0 1.21zm2.07-2.07c-.2-.46-.47-.86-.81-1.2-.34-.34-.743-.61-1.21-.81-.467-.2-.96-.3-1.48-.3s-1.013.1-1.48.3c-.467.2-.87.47-1.21.81-.34.34-.61.74-.81 1.2-.2.46-.3.95-.3 1.47s.1 1.01.3 1.47c.2.46.47.86.81 1.2.34.34.743.61 1.21.81.467.2.96.3 1.48.3s1.013-.1 1.48-.3c.467-.2.87-.47 1.21-.81.34-.34.61-.74.81-1.2.2-.46.3-.95.3-1.47s-.1-1.01-.3-1.47zm-26.654-3.748h-5.482l5.386-8.394h.096zm8.086 4.334v-4.35h-3.136V11.348h-6.432L47.188 25.07v4.51h10.656v4.414h5.024V29.58zm-27.64-.04c-.576.544-1.335.816-2.275.816s-1.704-.272-2.292-.816c-.587-.544-.881-1.275-.881-2.192 0-.896.294-1.632.881-2.208.588-.576 1.352-.864 2.292-.864.919 0 1.672.293 2.26.88.587.587.881 1.317.881 2.192 0 .917-.288 1.648-.865 2.192zm-.328-10.16c-.512.533-1.163.8-1.952.8-.832 0-1.488-.267-1.968-.8a2.73 2.73 0 0 1-.72-1.888c0-.747.245-1.365.736-1.856.49-.49 1.141-.736 1.952-.736.747 0 1.387.245 1.92.736.533.49.8 1.11.8 1.856 0 .725-.256 1.355-.768 1.888zm6.24 6.288a5.583 5.583 0 0 0-.864-1.568 5.637 5.637 0 0 0-1.28-1.184 5.787 5.787 0 0 0-1.6-.752v-.096a5.038 5.038 0 0 0 2.496-1.792c.64-.853.96-1.91.96-3.168 0-1.045-.219-1.968-.656-2.768a6.056 6.056 0 0 0-1.744-2 7.72 7.72 0 0 0-2.512-1.2c-.95-.267-1.947-.4-2.992-.4s-2.048.139-3.008.416c-.96.277-1.803.688-2.528 1.232a6 6 0 0 0-1.728 2.032c-.427.81-.64 1.739-.64 2.784 0 1.259.33 2.299.992 3.12a5.604 5.604 0 0 0 2.464 1.776v.064a5.895 5.895 0 0 0-1.568.752c-.49.33-.923.725-1.296 1.184a5.367 5.367 0 0 0-.88 1.568 5.53 5.53 0 0 0-.32 1.904c0 1.195.235 2.235.704 3.12a6.432 6.432 0 0 0 1.872 2.192c.779.576 1.68 1.008 2.704 1.296 1.024.288 2.101.432 3.232.432 1.11 0 2.181-.144 3.216-.432 1.035-.288 1.941-.725 2.72-1.312a6.59 6.59 0 0 0 1.872-2.208c.47-.885.704-1.925.704-3.12 0-.661-.107-1.285-.32-1.872z"/></clipPath></defs><g><g><g><path fill="#ffe495" d="M24.261 41.13l-5.394-5.394a1.765 1.765 0 0 0-2.494 0L1.63 50.48a5.583 5.583 0 0 0 0 7.887A5.54 5.54 0 0 0 5.575 60c1.49 0 2.89-.58 3.944-1.634L24.26 43.625a1.765 1.765 0 0 0 0-2.495z"/></g><g><path fill="#ffd96a" d="M1.63 58.363a5.54 5.54 0 0 0 3.944 1.634c1.49 0 2.89-.58 3.944-1.634L24.26 43.62a1.764 1.764 0 0 0 0-2.494l-2.697-2.697L1.63 58.363z"/></g><g><path fill="#eeede9" d="M1.631 50.477a5.583 5.583 0 0 0 0 7.887 5.54 5.54 0 0 0 3.944 1.634c1.49 0 2.89-.58 3.944-1.634l8.916-8.916-7.888-7.888z"/></g><g><path fill="#e2e0da" d="M1.63 58.37a5.54 5.54 0 0 0 3.944 1.634c1.49 0 2.89-.58 3.944-1.634l8.917-8.916-3.945-3.944L1.63 58.37z"/></g><g><path fill="#eeede9" d="M36.025 42.66a18.558 18.558 0 0 1-13.207-5.478c-3.532-3.532-5.477-8.222-5.477-13.206 0-10.303 8.381-18.685 18.684-18.685 4.984 0 9.673 1.945 13.206 5.477 3.533 3.533 5.478 8.222 5.478 13.206v.002c0 10.302-8.382 18.683-18.684 18.683zM52.978 7.021A23.818 23.818 0 0 0 36.025 0a23.82 23.82 0 0 0-16.953 7.022 23.819 23.819 0 0 0-7.022 16.952 23.819 23.819 0 0 0 7.022 16.954 23.819 23.819 0 0 0 16.953 7.022 23.817 23.817 0 0 0 16.953-7.022 23.82 23.82 0 0 0 7.021-16.954 23.815 23.815 0 0 0-7.021-16.952z"/></g><g><path fill="#e2e0da" d="M59.998 23.972A23.815 23.815 0 0 0 52.977 7.02l-3.747 3.747c3.532 3.532 5.477 8.222 5.477 13.205v.002c0 10.303-8.381 18.684-18.683 18.684-4.984 0-9.675-1.946-13.207-5.478l-3.747 3.746c4.528 4.528 10.55 7.022 16.954 7.022a23.817 23.817 0 0 0 16.953-7.022 23.819 23.819 0 0 0 7.021-16.954z"/></g><g><path fill="#ffc200" d="M81.32 20.104l-1.86-.9-8.26 14.6 1.78.88zm-8.78 4.37c-.307.3-.673.45-1.1.45-.427 0-.793-.15-1.1-.45-.307-.3-.46-.663-.46-1.09 0-.427.153-.793.46-1.1.307-.307.673-.46 1.1-.46.427 0 .793.153 1.1.46.307.307.46.673.46 1.1 0 .427-.153.79-.46 1.09zm2.4-2.58c-.2-.46-.47-.86-.81-1.2a3.684 3.684 0 0 0-1.21-.8 3.829 3.829 0 0 0-1.48-.29c-.52 0-1.013.097-1.48.29-.467.193-.87.46-1.21.8-.34.34-.61.74-.81 1.2-.2.46-.3.957-.3 1.49 0 .52.1 1.01.3 1.47.2.46.47.86.81 1.2.34.34.743.61 1.21.81.467.2.96.3 1.48.3s1.013-.1 1.48-.3c.467-.2.87-.47 1.21-.81.34-.34.61-.74.81-1.2.2-.46.3-.95.3-1.47 0-.533-.1-1.03-.3-1.49zm7.53 9.17c-.087.187-.2.35-.34.49s-.303.25-.49.33c-.187.08-.387.12-.6.12-.427 0-.793-.15-1.1-.45-.307-.3-.46-.663-.46-1.09 0-.427.153-.793.46-1.1.307-.307.673-.46 1.1-.46.213 0 .413.04.6.12.187.08.35.19.49.33s.253.307.34.5a1.475 1.475 0 0 1 0 1.21zm2.07-2.07c-.2-.46-.47-.86-.81-1.2-.34-.34-.743-.61-1.21-.81-.467-.2-.96-.3-1.48-.3s-1.013.1-1.48.3c-.467.2-.87.47-1.21.81-.34.34-.61.74-.81 1.2-.2.46-.3.95-.3 1.47s.1 1.01.3 1.47c.2.46.47.86.81 1.2.34.34.743.61 1.21.81.467.2.96.3 1.48.3s1.013-.1 1.48-.3c.467-.2.87-.47 1.21-.81.34-.34.61-.74.81-1.2.2-.46.3-.95.3-1.47s-.1-1.01-.3-1.47zm-26.654-3.748h-5.482l5.386-8.394h.096zm8.086 4.334v-4.35h-3.136V11.348h-6.432L47.188 25.07v4.51h10.656v4.414h5.024V29.58zm-27.64-.04c-.576.544-1.335.816-2.275.816s-1.704-.272-2.292-.816c-.587-.544-.881-1.275-.881-2.192 0-.896.294-1.632.881-2.208.588-.576 1.352-.864 2.292-.864.919 0 1.672.293 2.26.88.587.587.881 1.317.881 2.192 0 .917-.288 1.648-.865 2.192zm-.328-10.16c-.512.533-1.163.8-1.952.8-.832 0-1.488-.267-1.968-.8a2.73 2.73 0 0 1-.72-1.888c0-.747.245-1.365.736-1.856.49-.49 1.141-.736 1.952-.736.747 0 1.387.245 1.92.736.533.49.8 1.11.8 1.856 0 .725-.256 1.355-.768 1.888zm6.24 6.288a5.583 5.583 0 0 0-.864-1.568 5.637 5.637 0 0 0-1.28-1.184 5.787 5.787 0 0 0-1.6-.752v-.096a5.038 5.038 0 0 0 2.496-1.792c.64-.853.96-1.91.96-3.168 0-1.045-.219-1.968-.656-2.768a6.056 6.056 0 0 0-1.744-2 7.72 7.72 0 0 0-2.512-1.2c-.95-.267-1.947-.4-2.992-.4s-2.048.139-3.008.416c-.96.277-1.803.688-2.528 1.232a6 6 0 0 0-1.728 2.032c-.427.81-.64 1.739-.64 2.784 0 1.259.33 2.299.992 3.12a5.604 5.604 0 0 0 2.464 1.776v.064a5.895 5.895 0 0 0-1.568.752c-.49.33-.923.725-1.296 1.184a5.367 5.367 0 0 0-.88 1.568 5.53 5.53 0 0 0-.32 1.904c0 1.195.235 2.235.704 3.12a6.432 6.432 0 0 0 1.872 2.192c.779.576 1.68 1.008 2.704 1.296 1.024.288 2.101.432 3.232.432 1.11 0 2.181-.144 3.216-.432 1.035-.288 1.941-.725 2.72-1.312a6.59 6.59 0 0 0 1.872-2.208c.47-.885.704-1.925.704-3.12 0-.661-.107-1.285-.32-1.872z"/><path fill="none" stroke="#fff" stroke-miterlimit="50" stroke-width="4" d="M81.32 20.104l-1.86-.9-8.26 14.6 1.78.88zm-8.78 4.37c-.307.3-.673.45-1.1.45-.427 0-.793-.15-1.1-.45-.307-.3-.46-.663-.46-1.09 0-.427.153-.793.46-1.1.307-.307.673-.46 1.1-.46.427 0 .793.153 1.1.46.307.307.46.673.46 1.1 0 .427-.153.79-.46 1.09zm2.4-2.58c-.2-.46-.47-.86-.81-1.2a3.684 3.684 0 0 0-1.21-.8 3.829 3.829 0 0 0-1.48-.29c-.52 0-1.013.097-1.48.29-.467.193-.87.46-1.21.8-.34.34-.61.74-.81 1.2-.2.46-.3.957-.3 1.49 0 .52.1 1.01.3 1.47.2.46.47.86.81 1.2.34.34.743.61 1.21.81.467.2.96.3 1.48.3s1.013-.1 1.48-.3c.467-.2.87-.47 1.21-.81.34-.34.61-.74.81-1.2.2-.46.3-.95.3-1.47 0-.533-.1-1.03-.3-1.49zm7.53 9.17c-.087.187-.2.35-.34.49s-.303.25-.49.33c-.187.08-.387.12-.6.12-.427 0-.793-.15-1.1-.45-.307-.3-.46-.663-.46-1.09 0-.427.153-.793.46-1.1.307-.307.673-.46 1.1-.46.213 0 .413.04.6.12.187.08.35.19.49.33s.253.307.34.5a1.475 1.475 0 0 1 0 1.21zm2.07-2.07c-.2-.46-.47-.86-.81-1.2-.34-.34-.743-.61-1.21-.81-.467-.2-.96-.3-1.48-.3s-1.013.1-1.48.3c-.467.2-.87.47-1.21.81-.34.34-.61.74-.81 1.2-.2.46-.3.95-.3 1.47s.1 1.01.3 1.47c.2.46.47.86.81 1.2.34.34.743.61 1.21.81.467.2.96.3 1.48.3s1.013-.1 1.48-.3c.467-.2.87-.47 1.21-.81.34-.34.61-.74.81-1.2.2-.46.3-.95.3-1.47s-.1-1.01-.3-1.47zm-26.654-3.748h-5.482l5.386-8.394h.096zm8.086 4.334v-4.35h-3.136V11.348h-6.432L47.188 25.07v4.51h10.656v4.414h5.024V29.58zm-27.64-.04c-.576.544-1.335.816-2.275.816s-1.704-.272-2.292-.816c-.587-.544-.881-1.275-.881-2.192 0-.896.294-1.632.881-2.208.588-.576 1.352-.864 2.292-.864.919 0 1.672.293 2.26.88.587.587.881 1.317.881 2.192 0 .917-.288 1.648-.865 2.192zm-.328-10.16c-.512.533-1.163.8-1.952.8-.832 0-1.488-.267-1.968-.8a2.73 2.73 0 0 1-.72-1.888c0-.747.245-1.365.736-1.856.49-.49 1.141-.736 1.952-.736.747 0 1.387.245 1.92.736.533.49.8 1.11.8 1.856 0 .725-.256 1.355-.768 1.888zm6.24 6.288a5.583 5.583 0 0 0-.864-1.568 5.637 5.637 0 0 0-1.28-1.184 5.787 5.787 0 0 0-1.6-.752v-.096a5.038 5.038 0 0 0 2.496-1.792c.64-.853.96-1.91.96-3.168 0-1.045-.219-1.968-.656-2.768a6.056 6.056 0 0 0-1.744-2 7.72 7.72 0 0 0-2.512-1.2c-.95-.267-1.947-.4-2.992-.4s-2.048.139-3.008.416c-.96.277-1.803.688-2.528 1.232a6 6 0 0 0-1.728 2.032c-.427.81-.64 1.739-.64 2.784 0 1.259.33 2.299.992 3.12a5.604 5.604 0 0 0 2.464 1.776v.064a5.895 5.895 0 0 0-1.568.752c-.49.33-.923.725-1.296 1.184a5.367 5.367 0 0 0-.88 1.568 5.53 5.53 0 0 0-.32 1.904c0 1.195.235 2.235.704 3.12a6.432 6.432 0 0 0 1.872 2.192c.779.576 1.68 1.008 2.704 1.296 1.024.288 2.101.432 3.232.432 1.11 0 2.181-.144 3.216-.432 1.035-.288 1.941-.725 2.72-1.312a6.59 6.59 0 0 0 1.872-2.208c.47-.885.704-1.925.704-3.12 0-.661-.107-1.285-.32-1.872z" clip-path="url(&quot;#itpoa&quot;)"/></g></g></g></svg>