<svg xmlns="http://www.w3.org/2000/svg" width="99" height="20" viewBox="0 0 99 20"><g><g><g><path d="M66.4 5.843a5.057 5.057 0 0 1 1.048 1.748c.25.683.377 1.448.377 2.292 0 .874-.13 1.659-.389 2.349a5.093 5.093 0 0 1-1.068 1.758c-.462.484-1.02.86-1.633 1.102a5.517 5.517 0 0 1-2.074.382 5.41 5.41 0 0 1-2.107-.392 4.555 4.555 0 0 1-1.6-1.114 5.001 5.001 0 0 1-1.026-1.748c-.242-.684-.364-1.447-.364-2.292 0-.876.125-1.658.374-2.348a4.91 4.91 0 0 1 1.058-1.748c.459-.472 1.001-.836 1.635-1.092a5.5 5.5 0 0 1 2.074-.383 5.492 5.492 0 0 1 2.073.383c.612.24 1.166.616 1.622 1.103zM64.86 11.2c.104-.395.155-.816.155-1.267 0-.975-.199-1.766-.6-2.371-.401-.605-.993-.909-1.778-.909-.739 0-1.3.307-1.688.92-.383.61-.579 1.385-.579 2.315 0 1.051.2 1.864.601 2.438.401.573.98.863 1.734.863.372 0 .7-.084.988-.25.29-.17.539-.41.723-.7.192-.3.34-.643.444-1.04zm-7.816-6.6L52.93 9.517l4.136 5.726H53.75l-3.677-5.203v5.204h-2.79v-10.7h2.79v4.598L53.84 4.6zM0 0h10.96v2.489H7.009v12.755h-2.92V2.489H0zm97.894 12.107a5.206 5.206 0 0 1-1.167 1.724 5.405 5.405 0 0 1-1.749 1.14 6.723 6.723 0 0 1-2.18.48v3.52L90.146 20v-4.529a7.303 7.303 0 0 1-2.287-.467 5.189 5.189 0 0 1-1.768-1.139 4.976 4.976 0 0 1-1.137-1.748c-.268-.677-.399-1.446-.399-2.306a5.166 5.166 0 0 1 1.612-3.834 5.795 5.795 0 0 1 1.78-1.138 6.695 6.695 0 0 1 2.199-.492V1.355L92.778.327v4.02a7.084 7.084 0 0 1 2.212.471c.65.25 1.248.627 1.761 1.113a5.083 5.083 0 0 1 1.155 1.694c.278.655.417 1.384.417 2.184 0 .862-.142 1.627-.429 2.298zm-7.744 1.245V6.467c-.929.073-1.649.425-2.157 1.06-.508.634-.762 1.419-.762 2.35-.01.494.068.987.231 1.452.141.393.356.754.632 1.06.26.29.576.521.927.679.358.16.74.257 1.129.284zm5.275-2.017c.164-.422.241-.91.241-1.463 0-.93-.248-1.713-.746-2.347-.501-.633-1.214-.985-2.136-1.058v6.897a3.143 3.143 0 0 0 1.09-.283c.342-.16.65-.388.914-.678.263-.29.476-.646.637-1.068zm-13.944 2.496a5.383 5.383 0 0 1-1.75 1.138 6.708 6.708 0 0 1-2.18.48v3.521L74.891 20v-4.529a7.318 7.318 0 0 1-2.287-.467 5.19 5.19 0 0 1-1.768-1.14 4.956 4.956 0 0 1-1.138-1.747c-.266-.678-.4-1.446-.4-2.308a5.254 5.254 0 0 1 .41-2.097 5.08 5.08 0 0 1 1.203-1.736 5.841 5.841 0 0 1 1.782-1.137 6.738 6.738 0 0 1 2.198-.492V1.355L77.53.327v4.02a7.098 7.098 0 0 1 2.212.471c.651.25 1.25.627 1.762 1.113a5.068 5.068 0 0 1 1.157 1.694c.28.655.419 1.384.419 2.184 0 .862-.146 1.627-.43 2.296a5.223 5.223 0 0 1-1.17 1.726zm-6.587-.488h-.002zm-.002 0V6.467c-.925.074-1.646.425-2.154 1.058-.508.634-.763 1.417-.763 2.347-.01.494.069.987.233 1.451.142.392.356.751.63 1.058.263.29.578.52.93.679.356.16.737.255 1.124.283zm3.723-.26v-.002a2.85 2.85 0 0 0 .911-.678 3.33 3.33 0 0 0 .635-1.068c.162-.422.243-.91.243-1.463 0-.93-.249-1.713-.747-2.347-.498-.633-1.206-.984-2.127-1.058v6.897a3.15 3.15 0 0 0 1.085-.282zm-33.266-1.281h-.001c0 1.193-.36 2.062-1.087 2.611-.723.544-1.69.819-2.902.819h-4.957V4.543h2.81v3.803h2.024c1.252 0 2.25.304 2.996.907.743.606 1.117 1.454 1.117 2.549zm-3.224.982h-.002c.277-.203.417-.539.417-1.005 0-.437-.14-.766-.417-.985-.278-.216-.651-.327-1.12-.327H39.21v2.623h1.814c.452 0 .82-.101 1.1-.306zm-15.363 2.448h-2.805V4.543h2.806V8.61h4.174V4.543h2.805v10.688h-2.806v-4.437h-4.174zm-9.496-4.59c-.514.757-1.022 1.527-1.53 2.306-.5.773-1.017 1.535-1.55 2.284H11.38V4.543h2.808v6.514h.112c.174-.29.351-.568.527-.832.175-.26.35-.53.528-.807l3.144-4.875h2.81v10.689h-2.81V8.936h-.11c-.19.279-.372.559-.55.843-.175.284-.367.572-.572.862z"/></g></g></g></svg>