<svg xmlns="http://www.w3.org/2000/svg" width="110" height="22" viewBox="0 0 110 22"><g><g><g><path fill="#fff" d="M5.99 10.968a4.808 4.808 0 1 1 9.615-.001 4.808 4.808 0 0 1-9.615.001"/></g><g><path fill="#fff" d="M14.29 4.842a2.622 2.622 0 1 1 5.244 0 2.622 2.622 0 0 1-5.244 0"/></g><g><path fill="#fff" d="M98.398 7.6l-.324 1.652c-.765 3.594-1.05 4.755-1.714 8.326l-.144.13-2.116.063-.101-.15.847-3.678.25-1.207c-.907-.02-1.814-.04-2.72-.04-.71 0-1.25.012-1.805.025-.308 1.448-.57 2.72-.965 4.857l-.146.13-2.115.063-.105-.15.852-3.678.332-1.607c.559-2.523.662-3.08.995-5.411l.144-.15c.975-.129 1.203-.172 2.2-.385l.103.149-.225 1.062-.32 1.651-.338 1.565c.762.017 1.527.03 2.29.03.807 0 1.34-.015 2.24-.034.289-1.368.408-2.114.662-3.888l.145-.15c.975-.129 1.203-.172 2.198-.385l.103.149z"/></g><g><path fill="#fff" d="M71.946 12.146c-.382 1.733-1.23 4.06-3.504 4.06-1.147 0-2.166-.742-2.166-2.433 0-.781.424-5.94 3.759-5.94.786 0 2.166.358 2.166 2.494 0 .592-.106 1.205-.255 1.819m2.224.66c.19-.74.32-1.501.32-2.242 0-2.728-1.661-4.273-4.449-4.273a6.77 6.77 0 0 0-2.026.308c.075-.15.174-.35.31-.567.14-.219.317-.457.547-.676.463-.444 1.134-.81 2.104-.82.78-.008 2.12-.117 2.962-.333l.308-1.903c-.84.196-2.072.259-2.682.265-4.563.046-6.641 4.567-7.41 9.334a4.97 4.97 0 0 0-.043.324 8.386 8.386 0 0 0-.091 1.22c0 2.876 1.552 4.335 4.383 4.335 4 0 5.298-3.152 5.767-4.972"/></g><g><path fill="#fff" d="M82.732 14.662c-.233.186-.465.394-.699.54-.551.331-1.271.475-1.845.475-1.926 0-2.478-1.595-2.478-2.591 0-.104.042-2.777 2.269-4.27 1.25-.83 2.627-.87 3.326-.87.317 0 .635.02.953.02zm4.05-8.086l-.106-.166-2.926-.02c-1.95 0-4.684.125-6.654 2.384-.89 1.037-1.696 2.82-1.696 4.458 0 2.59 1.76 4.084 3.92 4.084 1.8 0 2.735-.768 3.094-1.058l-.147.83.105.144 1.993-.041.148-.145c.423-2.466.572-3.255 1.314-6.448z"/></g><g><path fill="#fff" d="M34.38 11.702c-.395 1.83-.854 2.367-1.083 2.656-.355.431-.896.802-1.522.802-.688 0-1.25-.33-1.48-.989-.062-.143-.124-.41-.124-.905 0-.946.437-3.292 1.228-4.3.23-.268.731-.845 1.71-.845 1.23 0 1.48 1.07 1.48 1.832 0 .638-.104 1.235-.208 1.75m3.42.78a8.74 8.74 0 0 0 .27-2.057c0-1.234-.251-2.387-1.314-3.334-.98-.864-2.313-1.152-3.627-1.152-5.419 0-6.44 4.96-6.44 6.854 0 1.543.436 2.674 1.354 3.456 1 .866 2.46 1.071 3.543 1.071 1.584 0 2.94-.33 4.128-1.297 1.105-.884 1.752-2.18 2.085-3.54"/></g><g><path fill="#fff" d="M46.74 8.598l-.243.002c-.197.829-.419 1.79-.767 3.32l-.34 1.55c-.382 1.78-.445 2.218-.678 3.662l-.15.104-3.669.085-.106-.145c.637-2.45.765-2.933 1.38-5.611l.233-1.027c.19-.847.309-1.398.407-1.916h-.117l-1.143.019-2.46.084-.107-.168.7-2.448.17-.105h7.19l3.65-.064.126.126-.678 2.47-.17.146-2.08-.084z"/></g><g><path fill="#fff" d="M58.715 8.59l-3.952.032s-.494 1.583-.922 3.344c-.427 1.762-.92 3.722-1.207 5.166l-.15.104-3.385.085-.099-.148c.725-2.448.869-2.93 1.582-5.608l.27-1.027c.23-.882.35-1.445.488-1.982l.591-2.448.164-.105h6.84l3.594-.063.128.126s-.693 3.404-1.124 5.716c-.433 2.312-.937 5.35-.937 5.35l-.141.104-3.526.076-.112-.147c.56-2.436.96-4.219 1.262-5.61.302-1.39.508-2.37.636-2.965"/></g><g><path fill="#fff" d="M102.851 11.09a36.45 36.45 0 0 0 1.506-1.406c.745-.728 2.552-2.61 2.895-2.974l.233-.128h2.449l.062.193c-.212.192-.32.278-1.17 1.005-.34.278-.553.492-.958.855l-2.766 2.568 3.298 6.31-.127.171-2.362.065-.171-.129c-.554-1.326-.704-1.625-1.47-3.186l-1.488-3.039c-.47 2.107-.76 3.43-1.285 6.183l-.15.13-2.17.063-.107-.15.874-3.68.34-1.605c.575-2.523.68-3.08 1.022-5.411l.149-.15c1-.129 1.235-.172 2.256-.385l.106.149-.23 1.062-.33 1.651z"/></g><g><path fill="#fff" d="M10.776.48v3.79A6.697 6.697 0 0 0 4.09 10.97a6.698 6.698 0 1 0 13.398-.025l3.79.003c0 5.815-4.696 10.51-10.49 10.51C4.997 21.458.3 16.763.3 10.97.3 5.18 4.99.487 10.776.48z"/></g></g></g></svg>