<svg xmlns="http://www.w3.org/2000/svg" width="60" height="60" viewBox="0 0 60 60"><g><g><g><g><path fill="#ffe495" d="M30 60c16.569 0 30-13.431 30-30C60 13.431 46.569 0 30 0 13.431 0 0 13.431 0 30c0 16.569 13.431 30 30 30z"/></g><g><path fill="#ffc200" d="M29.999 0c-.365 0-.727.009-1.089.022C44.974.595 57.821 13.796 57.821 30S44.974 59.405 28.91 59.978c.362.013.724.022 1.089.022 16.568 0 30-13.431 30-30 0-16.569-13.432-30-30-30z"/></g><g><path fill="#f9f9f8" d="M30.002 54.854c13.725 0 24.852-11.127 24.852-24.852S43.727 5.15 30.002 5.15 5.15 16.277 5.15 30.002s11.127 24.852 24.852 24.852z"/></g><g><path fill="#d5d2c9" d="M29.999 5.15c-.365 0-.728.01-1.089.025 13.22.57 23.763 11.467 23.763 24.827 0 13.36-10.543 24.257-23.763 24.827.361.016.724.025 1.089.025 13.725 0 24.852-11.127 24.852-24.852 0-13.726-11.127-24.852-24.852-24.852z"/></g><g><path fill="#ffd96a" d="M30.002 5.15c-.565 0-1.126.02-1.682.058v3.12a1.682 1.682 0 0 0 3.364 0v-3.12a25.221 25.221 0 0 0-1.682-.058z"/></g><g><path fill="#e2e0da" d="M44.312 41.28a.902.902 0 0 1-.53-.173L31.664 32.33a.905.905 0 1 1 1.063-1.467l12.117 8.779a.905.905 0 0 1-.532 1.639z"/></g><g><path fill="#ffd96a" d="M30.003 32.726a2.723 2.723 0 1 0 0-5.446 2.723 2.723 0 0 0 0 5.446z"/></g><g><path fill="#ffc200" d="M29.999 27.28c-.388 0-.756.081-1.089.227a2.723 2.723 0 0 1 0 4.992 2.723 2.723 0 1 0 1.089-5.219z"/></g><g><path fill="#d5d2c9" d="M30.002 27.278c.635 0 1.22.218 1.682.583V15.152a1.682 1.682 0 1 0-3.364 0v12.709a2.71 2.71 0 0 1 1.682-.583z"/></g><g><path fill="#d5d2c9" d="M27.275 30.03L21.4 34.974a1.682 1.682 0 0 0 2.166 2.575l5.817-4.895a2.723 2.723 0 0 1-2.107-2.624z"/></g><g><path fill="#ffd96a" d="M49.99 30.002c0 .93.753 1.682 1.682 1.682h3.12c.038-.556.058-1.116.058-1.682 0-.565-.02-1.126-.058-1.682h-3.12c-.929 0-1.682.753-1.682 1.682z"/></g><g><path fill="#ffc200" d="M54.797 28.32H52.62c.037.556.058 1.117.058 1.682 0 .566-.02 1.126-.058 1.682h2.177c.038-.556.058-1.116.058-1.682 0-.565-.02-1.126-.058-1.682z"/></g><g><g><path fill="#ffd96a" d="M30.002 49.99c-.929 0-1.682.753-1.682 1.682v3.12c.556.038 1.117.058 1.682.058.566 0 1.126-.02 1.682-.058v-3.12c0-.929-.753-1.682-1.682-1.682z"/></g><g><path fill="#ffd96a" d="M5.208 31.684h3.12a1.682 1.682 0 0 0 0-3.364h-3.12a25.222 25.222 0 0 0-.058 1.682c0 .566.02 1.126.058 1.682z"/></g></g></g></g></g></svg>