<svg xmlns="http://www.w3.org/2000/svg" width="118" height="24" viewBox="0 0 118 24"><g><g><g><path fill="#fff" d="M86.34 6.93h8.584v1.913h-.622s-.103-.981-1.085-.981H91.72v8.84h-2.122v-8.84h-1.552c-.825 0-1.033.672-1.085.981h-.62z"/></g><g><path fill="#fff" d="M104.28 6.93h1.551v9.772h-2.07V9.878l-5.116 6.824h-1.553V8.739c0-1.137-.982-1.29-.982-1.29V6.93h3.05v6.877z"/></g><g><path fill="#fff" d="M59.411 16.702h-2.688l-1.914-3.62s-.569-1.084-1.19-1.084h-.774v4.704h-2.121V8.739c0-1.137-1.034-1.238-1.034-1.238V6.93h3.155v4.083h.93s.62-.05 1.137-.877c1.656-2.69 1.448-3.206 2.172-3.206h2.068v.672c-1.448 0-1.861 2.948-3.258 3.878.674.257.932.878 2.43 3.62 0 0 .363.929 1.087.929z"/></g><g><path fill="#fff" d="M117.152 14.586c-.983 1.344-2.43 2.276-4.343 2.276-2.586 0-5.069-2.017-5.069-4.655v-.567c0-2.845 2.276-4.86 5.069-4.86 2.792 0 4.964 2.274 4.964 5.015h-7.498v1.603c0 1.394 1.137 2.532 2.793 2.532 1.447 0 2.43-.619 3.206-1.448zm-6.874-3.774h5.051v-.518a2.534 2.534 0 0 0-2.525-2.533 2.534 2.534 0 0 0-2.526 2.533z"/></g><g><path fill="#fff" d="M68.668 13.345c0 1.24-.878 2.43-2.221 2.483h-.204c-1.188 0-2.223-.88-2.376-1.81V9.831c.102-.984 1.083-2.07 2.376-2.07h.41s1.964.105 2.015 2.483zM63.864 8.02V6.934H60.76v.569s.983.154.983 1.241v12.41h2.12v-5.482c.982 1.138 2.274 1.19 2.689 1.19 2.74-.052 4.6-2.171 4.6-4.81v-.621c0-2.842-1.758-4.651-4.445-4.651-1.19 0-2.328.515-2.843 1.24z"/></g><g><path fill="#fff" d="M37.19 13.283c0 1.397-1.087 2.636-2.693 2.636s-2.642-1.24-2.642-2.636v-3.101c0-1.396 1.19-2.48 2.642-2.48 1.606 0 2.693 1.136 2.693 2.533zm-7.87-1.808v.827c0 2.172 2.121 4.55 5.172 4.55 2.844 0 5.222-2.119 5.222-4.602v-.674c0-2.479-1.965-4.806-5.222-4.806-3.672 0-5.172 2.844-5.172 4.705z"/></g><g><path fill="#fff" d="M84.892 6.93H81.79v.57s1.033.153 1.033 1.29v7.912h2.07z"/></g><g><path fill="#fff" d="M75.79 15.72v-4.086h1.812c.983 0 1.76.776 1.76 1.914v.414c0 .931-.88 1.757-1.812 1.757zm.003-5.066V6.93H72.69v.57s.93.102.93 1.239v7.963h4.809c1.862 0 3.206-1.136 3.206-2.74v-.464c0-1.762-1.292-2.844-3.31-2.844z"/></g><g><path fill="#fff" d="M40.07 6.93h8.584v1.913h-.621s-.104-.981-1.087-.981h-1.5v8.84h-2.12v-8.84h-1.55c-.828 0-1.036.672-1.085.981h-.621z"/></g><g><path fill="#fff" d="M19.113 12.386c0 2.773-1.441 5.26-3.763 6.492l-.532.25a1.34 1.34 0 0 1-.556.128c-.362 0-.65-.154-.821-.434a1.078 1.078 0 0 1-.123-.77.988.988 0 0 1 .483-.645c1.37-.623 2.25-2.023 2.25-3.569V9.794c0-1.548-.877-2.945-2.233-3.56-.002-.003-.407-.197-.5-.657a1.07 1.07 0 0 1 .123-.767c.17-.28.459-.435.821-.435.186 0 .38.042.554.125l.52.246c2.333 1.238 3.777 3.726 3.777 6.497zm-9.627 5.666c.053.287.015.538-.123.77-.171.28-.46.434-.823.434-.186 0-.379-.046-.555-.127l-.535-.25c-2.325-1.232-3.768-3.72-3.768-6.493v-1.143c0-2.771 1.446-5.26 3.78-6.497.022-.008.523-.246.523-.246.176-.083.37-.125.554-.125.362 0 .653.156.824.435.138.229.176.481.123.767-.092.46-.496.654-.501.657-1.357.615-2.234 2.012-2.234 3.56v4.044c0 1.546.878 2.946 2.25 3.569a.99.99 0 0 1 .485.645zM0 11.82c0 6.297 5.106 11.4 11.402 11.4 6.297 0 11.402-5.103 11.402-11.4C22.804 5.523 17.699.42 11.402.42 5.106.42 0 5.524 0 11.82z"/></g></g></g></svg>