<svg xmlns="http://www.w3.org/2000/svg" width="17" height="24" viewBox="0 0 17 24"><defs><clipPath id="70era"><path fill="#fff" d="M8.5 0C3.813 0 0 3.9 0 8.692c0 5.948 7.607 14.68 7.93 15.048a.754.754 0 0 0 1.14 0c.323-.368 7.93-9.1 7.93-15.048C17 3.899 13.187 0 8.5 0z"/></clipPath></defs><g><g><g><path fill="none" stroke="#a59f8c" stroke-miterlimit="50" stroke-width="4" d="M8.5 0C3.813 0 0 3.9 0 8.692c0 5.948 7.607 14.68 7.93 15.048a.754.754 0 0 0 1.14 0c.323-.368 7.93-9.1 7.93-15.048C17 3.899 13.187 0 8.5 0z" clip-path="url(&quot;#70era&quot;)"/></g><g transform="rotate(45 8.5 8.5)"><path fill="#8f8871" d="M6 6.04h5v5H6z"/></g></g></g></svg>