<svg xmlns="http://www.w3.org/2000/svg" width="118" height="15" viewBox="0 0 118 15"><g><g><g><path fill="#fff" d="M8.815.48v3.845H7.39c-1.8 0-3.25 1.517-3.25 3.401 0 1.883 1.45 3.4 3.25 3.4h1.425v3.845c3.25-.654 5.676-3.636 5.676-7.246 0-3.583-2.425-6.565-5.676-7.245"/></g><g><path fill="#fff" d="M52.633 7.738l4.425 4.473h-1.956l-3.73-3.757h-1.491v3.757H48.44V3.215h1.44v3.782h1.518l3.73-3.782h1.981zm9.41-3.296a3.27 3.27 0 0 0-3.287 3.27 3.27 3.27 0 0 0 3.287 3.272c1.798 0 3.288-1.457 3.288-3.272a3.27 3.27 0 0 0-3.288-3.27zm.005 8.152c-2.727 0-4.913-2.198-4.913-4.882 0-2.683 2.212-4.881 4.913-4.881 2.727 0 4.914 2.198 4.914 4.881 0 2.71-2.213 4.882-4.914 4.882zM32.074 4.442a3.27 3.27 0 0 0-3.288 3.27 3.27 3.27 0 0 0 3.288 3.272 3.27 3.27 0 0 0 3.288-3.272 3.27 3.27 0 0 0-3.288-3.27zm.03 8.152c-2.726 0-4.913-2.198-4.913-4.882 0-2.683 2.212-4.881 4.913-4.881s4.914 2.198 4.914 4.881c0 2.71-2.213 4.882-4.914 4.882zm46.573-9.38v8.997h-1.442V5.719l-3.631 4.242-3.682-4.344v6.594h-1.469V3.215h1.469v.05l.025-.05 3.657 4.344 3.63-4.344zm-53.801 7.029l1.157 1.15a4.8 4.8 0 0 1-3.24 1.227 4.919 4.919 0 0 1-4.914-4.908c0-2.683 2.186-4.881 4.913-4.881a4.915 4.915 0 0 1 3.319 1.278l-1.158 1.15a3.232 3.232 0 0 0-2.16-.817 3.271 3.271 0 1 0 0 6.542 3.285 3.285 0 0 0 2.083-.741zM7.28 12.212h.283v2.76H7.28c-4.013 0-7.28-3.247-7.28-7.26C0 3.726 3.267.48 7.28.48h.282v2.735H7.28c-2.495 0-4.527 2.02-4.527 4.498 0 2.479 2.033 4.497 4.528 4.497z"/></g><g><path fill="#fff" d="M96.951 12.896l-.863-2.011H91.46l-.864 2.01H89.02l3.94-9.315h1.627l3.942 9.315h-1.577zM113.6 8.264l4.342 4.632h-1.93l-3.656-3.89h-1.499v3.89h-1.422V3.58h1.422v3.917h1.499l3.708-3.917h1.928z"/></g><g><path fill="#fff" d="M39.837 11.392V8.99h4.02c.674 0 1.213.554 1.213 1.188-.027.66-.566 1.214-1.24 1.214zm0-6.307h3.985c.673 0 1.21.527 1.21 1.187s-.537 1.188-1.21 1.188h-3.985zm5.88 3.14c.512-.502.864-1.188.864-1.953a2.71 2.71 0 0 0-2.725-2.692H38.3v9.316h5.556c1.51-.026 2.725-1.24 2.725-2.718 0-.742-.313-1.45-.864-1.953z"/></g><g><path fill="#fff" d="M87.087 10.178c0-.634-.508-1.188-1.142-1.188h-3.758v2.402h3.758c.634 0 1.142-.555 1.142-1.214zm-1.142 2.718H80.74V3.58h6.931v1.504h-5.484v2.402h3.758c1.421 0 2.59 1.214 2.59 2.692 0 1.478-1.169 2.692-2.59 2.718zm21.707-9.29v9.227h-1.447v-3.85H101v3.85h-1.447V3.607H101v3.875h5.205V3.607z"/></g></g></g></svg>