<svg xmlns="http://www.w3.org/2000/svg" width="51" height="51" viewBox="0 0 51 51"><g><g><g><path fill="#fff" d="M35.318 20.01V36.35h4.335v-5.193l1.275-1.267 4.972 6.46H51l-7.14-9.373L51 20.011h-5.61l-5.737 6.079v-6.08zm-18.488 0V36.35h6.63l5.482-12.919V36.35h4.335V20.01h-6.502l-5.61 13.045V20.01zM4.335 23.938h6.12v12.412h4.335V20.01H0v16.338h4.335zM25.5 0L0 12.918v5.446L25.5 5.573 51 18.364v-5.446z"/></g><g><path fill="#fff" d="M43.73 42.3l-1.02 2.786h1.912z"/></g><g><path fill="#fff" d="M9.69 41.03v1.52H5.993v5.445H4.335V41.03zm4.59 0c1.403 0 2.422.76 2.422 2.28 0 1.52-1.147 2.279-2.422 2.279h-1.912v2.406H10.71V41.03zm6.12 3.04l1.657-3.04h1.785l-3.952 6.965h-1.785l1.402-2.406-2.805-4.56h2.04zm4.335-3.04h6.375v6.965h-1.657V42.55h-3.06v5.446h-1.658zm7.778 0h6.375v6.965H37.23V42.55h-3.06v5.446h-1.657zm12.367 0l2.55 6.965h-1.785l-.51-1.393h-2.932l-.51 1.393h-1.785l2.677-6.965zM0 50.655h51V38.37H0z"/></g><g><path fill="#fff" d="M15.175 43.317c0-.634-.383-.887-1.02-.887H12.37v1.773h1.785c.51 0 1.02-.253 1.02-.886z"/></g></g></g></svg>