<svg xmlns="http://www.w3.org/2000/svg" width="61" height="56" viewBox="0 0 61 56"><g><g><path fill="#ffeebc" d="M3 40.5h10v14H3z"/></g><g><path fill="#ffe495" d="M18 31.5h10v23H18z"/></g><g><path fill="#ffd96a" d="M33 23.5h10v31H33z"/></g><g><path fill="#ffc200" d="M48 15.5h10v39H48z"/></g><g><path fill="#e2e0da" d="M59.983 55.5H1.017A1.008 1.008 0 0 1 0 54.5c0-.553.455-1 1.017-1h58.966c.562 0 1.017.447 1.017 1 0 .553-.455 1-1.017 1z"/></g><g><path fill="#d5d2c9" d="M8.031 25.83a1 1 0 0 1-.501-1.866l38.971-22.5a1 1 0 1 1 1 1.732L8.53 25.696a.995.995 0 0 1-.499.134z"/></g><g><path fill="#d5d2c9" d="M47.003 3.33a1.11 1.11 0 0 1-.098-.005l-8.562-.83a1 1 0 0 1-.898-1.092.995.995 0 0 1 1.092-.898l8.562.83a1 1 0 0 1-.096 1.995z"/></g><g><path fill="#d5d2c9" d="M43.44 11.161a1 1 0 0 1-.91-1.414l3.562-7.83a1 1 0 1 1 1.82.828l-3.562 7.83a.998.998 0 0 1-.91.586z"/></g></g></svg>