<svg xmlns="http://www.w3.org/2000/svg" width="88" height="31" viewBox="0 0 88 31"><g><g><g><path fill="#fff" d="M20.774 16.468H0l1.498-4.12H22.3zm2.265-6.16H2.247l1.498-4.12h20.801zm2.256-6.179H4.503L6.001.01h20.792z"/></g><g><path fill="#fff" d="M43.775 17.76v.085c.835.321 1.615.77 2.312 1.33a5.832 5.832 0 0 1 2.097 4.84c0 3.379-1.797 5.822-4.746 6.553a12.61 12.61 0 0 1-3.595.346H30.94V6.19h7.92c1.258-.046 2.517.07 3.745.346 2.864.768 4.746 2.743 4.746 5.86a5.477 5.477 0 0 1-1.582 4.026 6 6 0 0 1-1.947 1.32zm-7.92 2.613v6.487h3.431a3.688 3.688 0 0 0 2.653-.73 3.227 3.227 0 0 0 1.031-2.546 3.517 3.517 0 0 0-.656-2.116c-.731-.936-1.631-1.114-3.169-1.114zm0-4.279h2.813a5.982 5.982 0 0 0 1.716-.13 2.706 2.706 0 0 0 1.875-2.81 2.5 2.5 0 0 0-1.875-2.742 6.836 6.836 0 0 0-1.876-.169h-2.653zm19.819 14.83V10.327H48.52V6.19h19.856l-1.413 4.147h-6.329v20.596zm14.248 0V6.19h16.093L84.6 10.337h-9.764v5.477h3.979c3.21 0 4.877.767 6.029 1.75a7.283 7.283 0 0 1 2.443 5.86 7.106 7.106 0 0 1-2.911 6.123c-1.545 1.067-3.165 1.367-6.46 1.367zm4.915-4.148h3.74a3.26 3.26 0 0 0 2.86-1.114 3.58 3.58 0 0 0 .73-2.35 3.26 3.26 0 0 0-1.281-2.808 3.736 3.736 0 0 0-2.347-.6h-3.702z"/></g></g></g></svg>