<svg xmlns="http://www.w3.org/2000/svg" width="52" height="60" viewBox="0 0 52 60"><g><g><g><path fill="#ffd96a" d="M48.456 40.068c-1.613 4.37-4.052 8.17-7.25 11.294-3.641 3.555-8.408 6.38-14.17 8.395A4.413 4.413 0 0 1 25.66 60h-.051a4.399 4.399 0 0 1-1.426-.242c-5.768-2.012-10.542-4.835-14.186-8.39-3.2-3.123-5.638-6.921-7.248-11.292C-.181 32.129-.014 23.375.12 16.34l.002-.108c.027-.581.045-1.191.054-1.865.05-3.308 2.68-6.045 5.988-6.23 6.899-.385 12.235-2.635 16.795-7.08l.04-.036a3.841 3.841 0 0 1 5.218 0l.039.037c4.56 4.444 9.897 6.694 16.796 7.08 3.308.184 5.939 2.92 5.988 6.229.01.678.027 1.288.054 1.865l.001.046c.134 7.048.3 15.82-2.64 23.79z"/></g><g><path fill="#ffc200" d="M48.456 40.067c-1.613 4.37-4.051 8.171-7.25 11.295-3.64 3.555-8.408 6.38-14.17 8.394A4.413 4.413 0 0 1 25.66 60V0a3.85 3.85 0 0 1 2.559 1.02l.038.037c4.561 4.445 9.898 6.695 16.796 7.08 3.309.184 5.94 2.921 5.988 6.23.01.678.027 1.287.054 1.864l.002.046c.133 7.048.299 15.82-2.64 23.79z"/></g><g><path fill="#fff" d="M40.557 30.003c0 8.228-6.68 14.925-14.9 14.954h-.053c-8.245 0-14.954-6.708-14.954-14.954 0-8.244 6.709-14.953 14.954-14.953h.052c8.22.03 14.901 6.726 14.901 14.953z"/></g><g><path fill="#eeede9" d="M40.56 30.003c0 8.228-6.68 14.925-14.9 14.954V15.05c8.22.03 14.9 6.726 14.9 14.953z"/></g><g><path fill="#ffd96a" d="M32.395 27.845l-6.735 6.736-1.455 1.455a1.756 1.756 0 0 1-1.245.516c-.45 0-.901-.172-1.246-.516l-3.128-3.13a1.76 1.76 0 1 1 2.489-2.49l1.885 1.886 6.946-6.946a1.76 1.76 0 1 1 2.489 2.49z"/></g><g><path fill="#ffc200" d="M32.395 27.845l-6.735 6.736V29.6l4.245-4.245a1.76 1.76 0 1 1 2.49 2.49z"/></g></g></g></svg>