<svg xmlns="http://www.w3.org/2000/svg" width="21" height="20" viewBox="0 0 21 20"><defs><clipPath id="a8n1a"><path fill="#fff" d="M0 8.013C0 3.587 3.595 0 8.03 0c4.436 0 8.031 3.587 8.031 8.013 0 4.425-3.595 8.012-8.03 8.012C3.595 16.025 0 12.438 0 8.013zm13.612 7.742l2.129-2.121L20 17.879 17.871 20z"/></clipPath></defs><g><g><path fill="none" stroke="#8f8871" stroke-miterlimit="50" stroke-width="4" d="M0 8.013C0 3.587 3.595 0 8.03 0c4.436 0 8.031 3.587 8.031 8.013 0 4.425-3.595 8.012-8.03 8.012C3.595 16.025 0 12.438 0 8.013zm13.612 7.742l2.129-2.121L20 17.879 17.871 20z" clip-path="url(&quot;#a8n1a&quot;)"/></g></g></svg>