<svg xmlns="http://www.w3.org/2000/svg" width="92" height="31" viewBox="0 0 92 31"><g><g><g><path fill="#fff" d="M70.723 18.24c-.812.882-1.993 1.47-3.285 1.47a4.45 4.45 0 1 1 0-8.898c.96 0 1.845.294 2.584.809l2.436-3.42a8.664 8.664 0 0 0-5.02-1.581c-4.762 0-8.638 3.86-8.638 8.604 0 4.743 3.876 8.604 8.638 8.604 2.215 0 4.208-.846 5.758-2.206z"/></g><g><path fill="#fff" d="M39.346 15.254c0-2.61 2.14-4.743 4.762-4.743v9.487c-2.621 0-4.762-2.133-4.762-4.744m11.702-8.126l-2.437 3.383c2.4.258 4.282 2.28 4.282 4.707 0 2.61-2.14 4.743-4.762 4.743V2.9h-4.023v3.75c-4.762 0-8.638 3.861-8.638 8.604 0 4.744 3.876 8.605 8.638 8.605v3.897h4.023V23.86c4.762 0 8.638-3.861 8.638-8.605.037-3.75-2.362-6.912-5.721-8.126"/></g><g><path fill="#fff" d="M86.602 6.99h4.581l-6.022 8.163 6.355 8.383H86.86l-6.208-8.273zm-6.54 16.546H75.67V6.99h4.393z"/></g><g><path fill="#fff" d="M12.03 9.046h17.35A15.313 15.313 0 0 0 20.298.81z"/></g><g><path fill="#fff" d="M30.235 11.472H9.084c-.48 0-.923-.294-1.144-.735a1.247 1.247 0 0 1 .258-1.324L17.5.147A13.656 13.656 0 0 0 15.36 0C6.905 0 .04 6.84.04 15.26c0 1.14.11 2.242.37 3.272h21.372c.48 0 .923.294 1.144.735.185.441.074.993-.258 1.324l-9.745 9.744c.812.147 1.624.184 2.473.184 8.453 0 15.32-6.84 15.32-15.26-.038-1.287-.185-2.574-.48-3.787z"/></g><g><path fill="#fff" d="M18.825 20.96H1.18a15.321 15.321 0 0 0 9.007 8.64z"/></g></g></g></svg>