<svg xmlns="http://www.w3.org/2000/svg" width="110" height="20" viewBox="0 0 110 20"><g><g><g><path fill="#fff" d="M67.834 9.278c-.18 0-.301.12-.301.301v4.217c-2.41.361-2.892-.482-2.892-1.265V9.519c0-.181-.12-.302-.301-.302h-2.53c-.121 0-.241.121-.302.241v2.049c0 1.084 0 2.289.12 2.77.242 1.387 1.507 1.929 2.772 2.05 1.084.12 2.108.06 3.133-.242v3.193c0 .18.12.301.3.301h2.531c.18 0 .301-.12.301-.3v-9.7c0-.06-.12-.301-.3-.301zm20.06 8.072v-1.867h1.21c.243 0 .545.06.787.12.303.12.484.422.424.723 0 .904-.726 1.024-1.21 1.024zm0-4.217V9.64c0-.18-.12-.301-.3-.301h-2.53c-.181 0-.302.12-.302.301v9.76c0 .18.12.3.301.3h4.338c2.65 0 4.096-1.144 4.096-3.313 0-2.168-1.445-3.253-4.156-3.253zm7.231-3.855c-.181 0-.302.12-.302.301v9.76c0 .18.12.3.302.3h2.538c.182 0 .302-.12.302-.3v-9.76c0-.06-.12-.301-.302-.301zM54.882 17.35c-1.085 0-2.109-.903-2.109-2.77 0-1.567.783-2.772 2.109-2.772 1.325 0 2.108 1.205 2.108 2.771 0 1.868-1.084 2.771-2.108 2.771zm0-8.253c-3.013 0-5.242 2.109-5.242 5.362 0 2.168 1.266 5.361 5.242 5.361s5.24-3.193 5.24-5.361c0-3.193-2.228-5.362-5.24-5.362zm51.681.18c-.12 0-.18.061-.24.181l-2.829 5.362V9.58c0-.18-.12-.301-.3-.301h-2.528c-.18 0-.3.12-.3.301v9.76c0 .18.12.3.3.3h2.648c.12 0 .18-.06.24-.18l2.829-5.362v5.241c0 .181.12.302.3.302h2.528c.18 0 .301-.12.301-.302V9.58c0-.06-.12-.301-.3-.301.06 0 .06 0 0 0zm-27.049 0c-.18 0-.3.121-.3.302v3.615h-3.01V9.579c0-.18-.12-.301-.3-.301h-2.528c-.18 0-.301.12-.301.301v9.76c0 .18.12.3.3.3h2.528c.18 0 .301-.12.301-.3v-3.796h3.01v3.795c0 .181.12.302.3.302h2.528c.18 0 .3-.12.3-.302V9.58c0-.06-.12-.301-.3-.301zM15.302 17.35c-1.085 0-2.109-.903-2.109-2.77 0-1.567.783-2.772 2.109-2.772 1.325 0 2.108 1.205 2.108 2.771.06 1.868-1.024 2.771-2.108 2.771zm0-8.253c-3.012 0-5.241 2.109-5.241 5.362 0 2.168 1.265 5.361 5.24 5.361 3.977 0 5.242-3.193 5.242-5.361 0-3.193-2.23-5.362-5.241-5.362zm13.795 3.738c.121.121.302.121.422 0l1.446-1.809a.292.292 0 0 0 0-.422c-1.084-.904-2.47-1.447-3.856-1.386-3.012 0-5.24 2.11-5.24 5.366 0 2.17 1.264 5.367 5.24 5.367a5.31 5.31 0 0 0 3.856-1.447.292.292 0 0 0 0-.422l-1.446-1.81a.291.291 0 0 0-.422 0c-.542.604-1.265.965-2.048.965-1.084 0-2.108-.844-2.108-2.713 0-1.508.723-2.714 2.108-2.714.783 0 1.506.362 2.048 1.025zm79.03-5.847c.12-.12.06-.3-.06-.421l-1.504-.783c-.12-.06-.301 0-.361.12-.421.663-1.323.844-1.985.422-.18-.12-.3-.241-.421-.422-.06-.12-.24-.18-.361-.12l-1.504.783c-.12.12-.18.301-.06.421.662 1.025 1.805 1.627 3.068 1.507 1.263.06 2.466-.482 3.188-1.506zM4.337 17.35H3.134v-1.686h1.205c.903 0 1.325.361 1.325.843 0 .542-.422.843-1.325.843zm-1.204-5.663h1.084c.241 0 .482.06.723.12.24.12.422.42.361.659 0 .479-.3.778-1.144.778H3.133zm3.855 2.475c.783-.362 1.265-1.206 1.265-2.05 0-.422 0-2.714-3.193-2.714H.301c-.18-.12-.301.12-.301.181v9.77c0 .18.12.3.301.3h5.06c3.254 0 3.495-2.472 3.495-2.954 0-.784-.362-1.628-1.085-2.11a3.245 3.245 0 0 0-.783-.423zm26.628-4.884a.797.797 0 0 0-.783.783v7.771c0 .964.783 1.808 1.807 1.808.964 0 1.807-.784 1.807-1.808v-5.361h2.109v5.361c0 .964.783 1.808 1.807 1.808a1.775 1.775 0 0 0 1.807-1.808v-5.361h2.109v5.361c0 .964.783 1.808 1.807 1.808.964 0 1.807-.784 1.807-1.808v-7.71c-.12-.423-.482-.844-.903-.844z"/></g><g><path fill="#fff" d="M32.165 6.986c-.421-.783-.18-1.747.603-2.169L39.937.66a.894.894 0 0 1 .783 0l7.169 4.157c.783.422 1.024 1.386.602 2.169-.421.783-1.385 1.024-2.169.602l-5.964-3.373-6.024 3.373c-.723.422-1.687.12-2.169-.602z"/></g></g></g></svg>