<svg xmlns="http://www.w3.org/2000/svg" width="97" height="31" viewBox="0 0 97 31"><g><g><g><path fill="#fff" d="M77.041 15.942h-1.937v3.973h1.958c1.445 0 2.38-.844 2.38-1.934 0-1.238-.876-2.04-2.4-2.04zm-60.803 9.77l-3.2.017.011-9.746-3.26.003s-.094 2.728-.291 4.163c-.359 2.609-.937 3.64-1.76 4.454-.598.595-1.408 1.017-2.343 1.22a5.687 5.687 0 0 1-1.09.125 3.078 3.078 0 0 0-.185-.006h-.015V23.07h.004a.897.897 0 0 0 .185-.02l.036-.008c.934-.264 1.735-1.317 1.976-2.185.35-1.251.501-3.637.504-5.418.001-.797-.01-1.968-.014-2.395h9.442zM7.876.35L0 9.619l.006.006H.002V30.39h22.46l7.578-9.267V.35z"/></g><g><path fill="#fff" d="M46.632 22.5c.259-.198.499-.42.716-.663l.018-.022.03-.043 2.227 2.206c-.584.66-1.212 1.16-1.92 1.527-.967.5-2.068.742-3.364.742-3.857 0-6.766-2.89-6.766-6.721v-.039c0-3.854 2.976-6.76 6.921-6.76 1.144 0 2.174.207 3.064.615a6.18 6.18 0 0 1 2.12 1.613l-2.307 2.286-.196-.24c-.8-.842-1.661-1.23-2.72-1.23-1.92 0-3.367 1.58-3.367 3.678v.038c0 2.121 1.448 3.72 3.368 3.72.845 0 1.537-.225 2.176-.707zM41.025.35L33.15 9.619l.004.006h-.004V30.39h22.46l7.577-9.269V.35zm41.702 17.402c0 2.854-2.057 5.074-5.52 5.074l-2.103-.009v3.157h-3.399V12.997h5.598c3.346 0 5.424 1.868 5.424 4.65v.105zM74.175.35L66.3 9.619l.004.006H66.3V30.39h22.46l7.578-9.267V.35z"/></g></g></g></svg>