<svg xmlns="http://www.w3.org/2000/svg" width="90" height="60" viewBox="0 0 90 60"><defs><clipPath id="vww1a"><path fill="#fff" d="M48 37.314V7.686h42v29.628zm35.93-17.21l-1.86-.9-8.26 14.6 1.78.88zm-8.78 4.37c-.307.3-.673.45-1.1.45-.427 0-.793-.15-1.1-.45-.307-.3-.46-.663-.46-1.09 0-.427.153-.793.46-1.1.307-.307.673-.46 1.1-.46.427 0 .793.153 1.1.46.307.307.46.673.46 1.1 0 .427-.153.79-.46 1.09zm2.4-2.58c-.2-.46-.47-.86-.81-1.2a3.684 3.684 0 0 0-1.21-.8 3.829 3.829 0 0 0-1.48-.29c-.52 0-1.013.097-1.48.29-.467.193-.87.46-1.21.8-.34.34-.61.74-.81 1.2-.2.46-.3.957-.3 1.49 0 .52.1 1.01.3 1.47.2.46.47.86.81 1.2.34.34.743.61 1.21.81.467.2.96.3 1.48.3s1.013-.1 1.48-.3c.467-.2.87-.47 1.21-.81.34-.34.61-.74.81-1.2.2-.46.3-.95.3-1.47 0-.533-.1-1.03-.3-1.49zm7.53 9.17c-.087.187-.2.35-.34.49s-.303.25-.49.33c-.187.08-.387.12-.6.12-.427 0-.793-.15-1.1-.45-.307-.3-.46-.663-.46-1.09 0-.427.153-.793.46-1.1.307-.307.673-.46 1.1-.46.213 0 .413.04.6.12.187.08.35.19.49.33s.253.307.34.5a1.475 1.475 0 0 1 0 1.21zm2.07-2.07c-.2-.46-.47-.86-.81-1.2-.34-.34-.743-.61-1.21-.81-.467-.2-.96-.3-1.48-.3s-1.013.1-1.48.3c-.467.2-.87.47-1.21.81-.34.34-.61.74-.81 1.2-.2.46-.3.95-.3 1.47s.1 1.01.3 1.47c.2.46.47.86.81 1.2.34.34.743.61 1.21.81.467.2.96.3 1.48.3s1.013-.1 1.48-.3c.467-.2.87-.47 1.21-.81.34-.34.61-.74.81-1.2.2-.46.3-.95.3-1.47s-.1-1.01-.3-1.47zm-24.584-3.998a11.662 11.662 0 0 1-.48 2.4c-.235.736-.57 1.355-1.008 1.856-.437.501-1.008.752-1.712.752s-1.28-.25-1.728-.752c-.448-.501-.795-1.12-1.04-1.856a10.99 10.99 0 0 1-.496-2.4 24.395 24.395 0 0 1-.128-2.384c0-.704.043-1.483.128-2.336.085-.853.25-1.648.496-2.384.245-.736.592-1.355 1.04-1.856.448-.501 1.024-.752 1.728-.752s1.275.25 1.712.752c.437.501.773 1.12 1.008 1.856s.395 1.53.48 2.384c.085.853.128 1.632.128 2.336 0 .725-.043 1.52-.128 2.384zm5.152-6.944c-.32-1.44-.832-2.699-1.536-3.776a7.912 7.912 0 0 0-2.736-2.576c-1.12-.64-2.48-.96-4.08-.96s-2.965.32-4.096.96a8.01 8.01 0 0 0-2.768 2.576c-.715 1.077-1.232 2.336-1.552 3.776-.32 1.44-.48 2.96-.48 4.56 0 1.6.16 3.125.48 4.576.32 1.45.837 2.725 1.552 3.824a8.047 8.047 0 0 0 2.768 2.624c1.13.65 2.496.976 4.096.976s2.96-.325 4.08-.976a7.951 7.951 0 0 0 2.736-2.624c.704-1.099 1.216-2.373 1.536-3.824.32-1.45.48-2.976.48-4.576 0-1.6-.16-3.12-.48-4.56z"/></clipPath></defs><g><g><g><g><path fill="#eeede9" d="M30.582 35.78a5.198 5.198 0 1 1 0-10.396 5.198 5.198 0 0 1 0 10.395zm25.809-9.36c-5.358-1.03-7.814-7.29-4.588-11.688l2.266-3.09-4.896-4.895-3.043 2.061c-4.517 3.06-10.68.37-11.509-5.02L34.038 0h-6.923l-.896 4.663c-1.007 5.238-7.044 7.74-11.461 4.748l-3.931-2.664-4.896 4.895 2.266 3.09c3.226 4.399.768 10.658-4.588 11.689L0 27.115v6.923l3.788.583c5.392.83 8.08 6.994 5.02 11.51l-2.061 3.042 4.895 4.896 3.09-2.266c4.399-3.226 10.658-.77 11.689 4.588L27.115 60h6.923l.41-2.664c.848-5.511 7.24-8.16 11.736-4.861l2.174 1.594 4.895-4.896-2.061-3.042c-3.06-4.516-.37-10.68 5.02-11.51L60 34.038v-6.923z"/></g><g><path fill="#ffd96a" d="M30.582 35.774a5.193 5.193 0 1 1 0-10.386 5.193 5.193 0 0 1 0 10.386zm0-16.154c-6.055 0-10.962 4.907-10.962 10.962 0 6.054 4.907 10.961 10.962 10.961 6.054 0 10.961-4.907 10.961-10.961 0-6.055-4.907-10.962-10.961-10.962z"/></g></g><g><path fill="#ffc200" d="M83.93 20.104l-1.86-.9-8.26 14.6 1.78.88zm-8.78 4.37c-.307.3-.673.45-1.1.45-.427 0-.793-.15-1.1-.45-.307-.3-.46-.663-.46-1.09 0-.427.153-.793.46-1.1.307-.307.673-.46 1.1-.46.427 0 .793.153 1.1.46.307.307.46.673.46 1.1 0 .427-.153.79-.46 1.09zm2.4-2.58c-.2-.46-.47-.86-.81-1.2a3.684 3.684 0 0 0-1.21-.8 3.829 3.829 0 0 0-1.48-.29c-.52 0-1.013.097-1.48.29-.467.193-.87.46-1.21.8-.34.34-.61.74-.81 1.2-.2.46-.3.957-.3 1.49 0 .52.1 1.01.3 1.47.2.46.47.86.81 1.2.34.34.743.61 1.21.81.467.2.96.3 1.48.3s1.013-.1 1.48-.3c.467-.2.87-.47 1.21-.81.34-.34.61-.74.81-1.2.2-.46.3-.95.3-1.47 0-.533-.1-1.03-.3-1.49zm7.53 9.17c-.087.187-.2.35-.34.49s-.303.25-.49.33c-.187.08-.387.12-.6.12-.427 0-.793-.15-1.1-.45-.307-.3-.46-.663-.46-1.09 0-.427.153-.793.46-1.1.307-.307.673-.46 1.1-.46.213 0 .413.04.6.12.187.08.35.19.49.33s.253.307.34.5a1.475 1.475 0 0 1 0 1.21zm2.07-2.07c-.2-.46-.47-.86-.81-1.2-.34-.34-.743-.61-1.21-.81-.467-.2-.96-.3-1.48-.3s-1.013.1-1.48.3c-.467.2-.87.47-1.21.81-.34.34-.61.74-.81 1.2-.2.46-.3.95-.3 1.47s.1 1.01.3 1.47c.2.46.47.86.81 1.2.34.34.743.61 1.21.81.467.2.96.3 1.48.3s1.013-.1 1.48-.3c.467-.2.87-.47 1.21-.81.34-.34.61-.74.81-1.2.2-.46.3-.95.3-1.47s-.1-1.01-.3-1.47zm-24.584-3.998a11.662 11.662 0 0 1-.48 2.4c-.235.736-.57 1.355-1.008 1.856-.437.501-1.008.752-1.712.752s-1.28-.25-1.728-.752c-.448-.501-.795-1.12-1.04-1.856a10.99 10.99 0 0 1-.496-2.4 24.395 24.395 0 0 1-.128-2.384c0-.704.043-1.483.128-2.336.085-.853.25-1.648.496-2.384.245-.736.592-1.355 1.04-1.856.448-.501 1.024-.752 1.728-.752s1.275.25 1.712.752c.437.501.773 1.12 1.008 1.856s.395 1.53.48 2.384c.085.853.128 1.632.128 2.336 0 .725-.043 1.52-.128 2.384zm5.152-6.944c-.32-1.44-.832-2.699-1.536-3.776a7.912 7.912 0 0 0-2.736-2.576c-1.12-.64-2.48-.96-4.08-.96s-2.965.32-4.096.96a8.01 8.01 0 0 0-2.768 2.576c-.715 1.077-1.232 2.336-1.552 3.776-.32 1.44-.48 2.96-.48 4.56 0 1.6.16 3.125.48 4.576.32 1.45.837 2.725 1.552 3.824a8.047 8.047 0 0 0 2.768 2.624c1.13.65 2.496.976 4.096.976s2.96-.325 4.08-.976a7.951 7.951 0 0 0 2.736-2.624c.704-1.099 1.216-2.373 1.536-3.824.32-1.45.48-2.976.48-4.576 0-1.6-.16-3.12-.48-4.56z"/><path fill="none" stroke="#fff" stroke-miterlimit="50" stroke-width="4" d="M83.93 20.104l-1.86-.9-8.26 14.6 1.78.88zm-8.78 4.37c-.307.3-.673.45-1.1.45-.427 0-.793-.15-1.1-.45-.307-.3-.46-.663-.46-1.09 0-.427.153-.793.46-1.1.307-.307.673-.46 1.1-.46.427 0 .793.153 1.1.46.307.307.46.673.46 1.1 0 .427-.153.79-.46 1.09zm2.4-2.58c-.2-.46-.47-.86-.81-1.2a3.684 3.684 0 0 0-1.21-.8 3.829 3.829 0 0 0-1.48-.29c-.52 0-1.013.097-1.48.29-.467.193-.87.46-1.21.8-.34.34-.61.74-.81 1.2-.2.46-.3.957-.3 1.49 0 .52.1 1.01.3 1.47.2.46.47.86.81 1.2.34.34.743.61 1.21.81.467.2.96.3 1.48.3s1.013-.1 1.48-.3c.467-.2.87-.47 1.21-.81.34-.34.61-.74.81-1.2.2-.46.3-.95.3-1.47 0-.533-.1-1.03-.3-1.49zm7.53 9.17c-.087.187-.2.35-.34.49s-.303.25-.49.33c-.187.08-.387.12-.6.12-.427 0-.793-.15-1.1-.45-.307-.3-.46-.663-.46-1.09 0-.427.153-.793.46-1.1.307-.307.673-.46 1.1-.46.213 0 .413.04.6.12.187.08.35.19.49.33s.253.307.34.5a1.475 1.475 0 0 1 0 1.21zm2.07-2.07c-.2-.46-.47-.86-.81-1.2-.34-.34-.743-.61-1.21-.81-.467-.2-.96-.3-1.48-.3s-1.013.1-1.48.3c-.467.2-.87.47-1.21.81-.34.34-.61.74-.81 1.2-.2.46-.3.95-.3 1.47s.1 1.01.3 1.47c.2.46.47.86.81 1.2.34.34.743.61 1.21.81.467.2.96.3 1.48.3s1.013-.1 1.48-.3c.467-.2.87-.47 1.21-.81.34-.34.61-.74.81-1.2.2-.46.3-.95.3-1.47s-.1-1.01-.3-1.47zm-24.584-3.998a11.662 11.662 0 0 1-.48 2.4c-.235.736-.57 1.355-1.008 1.856-.437.501-1.008.752-1.712.752s-1.28-.25-1.728-.752c-.448-.501-.795-1.12-1.04-1.856a10.99 10.99 0 0 1-.496-2.4 24.395 24.395 0 0 1-.128-2.384c0-.704.043-1.483.128-2.336.085-.853.25-1.648.496-2.384.245-.736.592-1.355 1.04-1.856.448-.501 1.024-.752 1.728-.752s1.275.25 1.712.752c.437.501.773 1.12 1.008 1.856s.395 1.53.48 2.384c.085.853.128 1.632.128 2.336 0 .725-.043 1.52-.128 2.384zm5.152-6.944c-.32-1.44-.832-2.699-1.536-3.776a7.912 7.912 0 0 0-2.736-2.576c-1.12-.64-2.48-.96-4.08-.96s-2.965.32-4.096.96a8.01 8.01 0 0 0-2.768 2.576c-.715 1.077-1.232 2.336-1.552 3.776-.32 1.44-.48 2.96-.48 4.56 0 1.6.16 3.125.48 4.576.32 1.45.837 2.725 1.552 3.824a8.047 8.047 0 0 0 2.768 2.624c1.13.65 2.496.976 4.096.976s2.96-.325 4.08-.976a7.951 7.951 0 0 0 2.736-2.624c.704-1.099 1.216-2.373 1.536-3.824.32-1.45.48-2.976.48-4.576 0-1.6-.16-3.12-.48-4.56z" clip-path="url(&quot;#vww1a&quot;)"/></g></g></g></svg>